<mxfile host="app.diagrams.net" modified="2024-04-25T12:25:15.523Z" agent="Mozilla/5.0 (Macintosh; Intel Mac OS X 10_15_7) AppleWebKit/537.36 (KHTML, like Gecko) Chrome/124.0.0.0 Safari/537.36" version="24.3.0" etag="oL1hh1qpEb1t5jKhAWkx" type="github">
  <diagram name="第 1 页" id="FzFlJGIw3AxNTQbsJO00">
    <mxGraphModel>
      <root>
        <mxCell id="0" />
        <mxCell id="1" parent="0" />
      </root>
    </mxGraphModel>
  </diagram>
</mxfile>
